<svg width="68" height="68" viewBox="0 0 68 68" fill="none" xmlns="http://www.w3.org/2000/svg">
<path d="M63.1562 7H4.71875C3.73281 7.00109 2.78757 7.39324 2.0904 8.0904C1.39324 8.78757 1.00109 9.73281 1 10.7188V47.9062C1.00109 48.8922 1.39324 49.8374 2.0904 50.5346C2.78757 51.2318 3.73281 51.6239 4.71875 51.625H25.9927L24.7177 54.8125H19.0625C18.7807 54.8125 18.5105 54.9244 18.3112 55.1237C18.1119 55.323 18 55.5932 18 55.875V58H11.625C11.3432 58 11.073 58.1119 10.8737 58.3112C10.6744 58.5105 10.5625 58.7807 10.5625 59.0625C10.5625 59.3443 10.6744 59.6145 10.8737 59.8138C11.073 60.0131 11.3432 60.125 11.625 60.125H56.25C56.5318 60.125 56.802 60.0131 57.0013 59.8138C57.2006 59.6145 57.3125 59.3443 57.3125 59.0625C57.3125 58.7807 57.2006 58.5105 57.0013 58.3112C56.802 58.1119 56.5318 58 56.25 58H49.875V55.875C49.875 55.5932 49.7631 55.323 49.5638 55.1237C49.3645 54.9244 49.0943 54.8125 48.8125 54.8125H43.1573L41.8823 51.625H63.1562C64.1422 51.6239 65.0874 51.2318 65.7846 50.5346C66.4818 49.8374 66.8739 48.8922 66.875 47.9062V10.7188C66.8739 9.73281 66.4818 8.78757 65.7846 8.0904C65.0874 7.39324 64.1422 7.00109 63.1562 7V7ZM47.75 56.9375V58H20.125V56.9375H47.75ZM27.0073 54.8125L28.2823 51.625H39.5927L40.8677 54.8125H27.0073ZM64.75 47.9062C64.7496 48.3288 64.5816 48.734 64.2828 49.0328C63.984 49.3316 63.5788 49.4996 63.1562 49.5H4.71875C4.29617 49.4996 3.891 49.3316 3.59219 49.0328C3.29338 48.734 3.12535 48.3288 3.125 47.9062V45.25H64.75V47.9062ZM64.75 43.125H3.125V10.7188C3.12535 10.2962 3.29338 9.891 3.59219 9.59219C3.891 9.29338 4.29617 9.12535 4.71875 9.125H63.1562C63.5788 9.12535 63.984 9.29338 64.2828 9.59219C64.5816 9.891 64.7496 10.2962 64.75 10.7188V43.125Z" fill="#FFB400"/>
<path d="M29.1671 34.888C29.2838 34.9646 29.4144 35.0174 29.5514 35.0435C29.6885 35.0696 29.8294 35.0684 29.966 35.04C30.1026 35.0117 30.2323 34.9567 30.3477 34.8782C30.4631 34.7997 30.5618 34.6992 30.6384 34.5826L39.0056 21.8326C39.1602 21.597 39.2149 21.3096 39.1577 21.0337C39.1005 20.7578 38.936 20.5159 38.7004 20.3613C38.4648 20.2066 38.1774 20.1519 37.9015 20.2092C37.6256 20.2664 37.3837 20.4309 37.2291 20.6665L28.8619 33.4165C28.7853 33.5331 28.7324 33.6637 28.7063 33.8008C28.6802 33.9379 28.6813 34.0788 28.7096 34.2155C28.738 34.3521 28.793 34.4819 28.8715 34.5973C28.9499 34.7127 29.0504 34.8115 29.1671 34.888Z" fill="#FFB400"/>
<path d="M40.7573 34.8165C40.9738 34.9969 41.2531 35.0839 41.5337 35.0583C41.8143 35.0328 42.0733 34.8968 42.2537 34.6804L47.5662 28.3054C47.7253 28.1144 47.8124 27.8738 47.8124 27.6252C47.8124 27.3767 47.7253 27.136 47.5662 26.9451L42.2537 20.5701C42.1647 20.462 42.0551 20.3726 41.9314 20.307C41.8077 20.2413 41.6723 20.2008 41.5328 20.1878C41.3934 20.1747 41.2528 20.1893 41.119 20.2307C40.9853 20.2722 40.861 20.3397 40.7534 20.4293C40.6459 20.519 40.5571 20.629 40.4921 20.7531C40.4272 20.8772 40.3875 21.0128 40.3752 21.1523C40.3629 21.2918 40.3783 21.4324 40.4205 21.5659C40.4627 21.6994 40.5309 21.8233 40.6212 21.9304L45.3668 27.6252L40.6212 33.3201C40.4408 33.5366 40.3538 33.8159 40.3793 34.0965C40.4049 34.3771 40.5408 34.6361 40.7573 34.8165Z" fill="#FFB400"/>
<path d="M25.7462 34.6804C25.8352 34.7884 25.9448 34.8779 26.0685 34.9435C26.1922 35.0091 26.3276 35.0496 26.4671 35.0627C26.6065 35.0758 26.7471 35.0612 26.8809 35.0197C27.0146 34.9782 27.1389 34.9107 27.2465 34.8211C27.354 34.7315 27.4428 34.6214 27.5078 34.4974C27.5727 34.3733 27.6124 34.2376 27.6247 34.0981C27.637 33.9586 27.6216 33.8181 27.5794 33.6845C27.5372 33.551 27.469 33.4272 27.3787 33.3201L22.6331 27.6252L27.3787 21.9304C27.469 21.8233 27.5372 21.6994 27.5794 21.5659C27.6216 21.4324 27.637 21.2918 27.6247 21.1523C27.6124 21.0128 27.5727 20.8772 27.5078 20.7531C27.4428 20.629 27.354 20.519 27.2465 20.4293C27.1389 20.3397 27.0146 20.2722 26.8809 20.2307C26.7471 20.1893 26.6065 20.1747 26.4671 20.1878C26.3276 20.2008 26.1922 20.2413 26.0685 20.307C25.9448 20.3726 25.8352 20.462 25.7462 20.5701L20.4337 26.9451C20.2746 27.136 20.1875 27.3767 20.1875 27.6252C20.1875 27.8737 20.2746 28.1144 20.4337 28.3054L25.7462 34.6804Z" fill="#FFB400"/>
</svg>
